<mxfile host="app.diagrams.net" modified="2023-11-20T03:26:58.620Z" agent="Mozilla/5.0 (Macintosh; Intel Mac OS X 10_15_7) AppleWebKit/537.36 (KHTML, like Gecko) Chrome/119.0.0.0 Safari/537.36" version="22.1.3" etag="4SNDHRLQvaUMzx9UiA4N" type="github">
  <diagram name="Page-1" id="iixCE94_k0CVg3pDkVnW">
    <mxGraphModel>
      <root>
        <mxCell id="0" />
        <mxCell id="1" parent="0" />
      </root>
    </mxGraphModel>
  </diagram>
</mxfile>
